<svg width="14" height="14" viewBox="0 0 14 14" fill="none" xmlns="http://www.w3.org/2000/svg">
<path d="M6.99998 13.6666C3.32665 13.6666 0.333313 10.6733 0.333313 6.99996C0.333313 3.32663 3.32665 0.333292 6.99998 0.333292C10.6733 0.333292 13.6666 3.32663 13.6666 6.99996C13.6666 10.6733 10.6733 13.6666 6.99998 13.6666ZM9.70665 5.80663C9.60665 5.70663 9.47998 5.65996 9.35331 5.65996C9.22665 5.65996 9.09998 5.70663 8.99998 5.80663L6.99998 7.80663L4.99998 5.80663C4.80665 5.61329 4.48665 5.61329 4.29331 5.80663C4.09998 5.99996 4.09998 6.31996 4.29331 6.51329L6.64665 8.86663C6.83998 9.05996 7.15998 9.05996 7.35331 8.86663L9.70665 6.51329C9.89998 6.31329 9.89998 5.99996 9.70665 5.80663Z" fill="#EB3B5A"/>
</svg>
