<svg width="18" height="18" viewBox="0 0 18 18" fill="none" xmlns="http://www.w3.org/2000/svg">
<path d="M8.99999 17.3334C4.40832 17.3334 0.666656 13.5917 0.666656 9.00004C0.666656 4.40837 4.40832 0.666706 8.99999 0.666706C13.5917 0.666706 17.3333 4.40837 17.3333 9.00004C17.3333 13.5917 13.5917 17.3334 8.99999 17.3334ZM12.3833 7.50837C12.2583 7.38337 12.1 7.32504 11.9417 7.32504C11.7833 7.32504 11.625 7.38337 11.5 7.50837L8.99999 10.0084L6.49999 7.50837C6.25832 7.26671 5.85832 7.26671 5.61666 7.50837C5.37499 7.75004 5.37499 8.15004 5.61666 8.39171L8.55832 11.3334C8.79999 11.575 9.19999 11.575 9.44166 11.3334L12.3833 8.39171C12.625 8.14171 12.625 7.75004 12.3833 7.50837Z" fill="#EB3B5A"/>
</svg>
